<mxfile host="app.diagrams.net" modified="2023-05-12T01:38:53.398Z" agent="5.0 (Windows NT 10.0; Win64; x64) AppleWebKit/537.36 (KHTML, like Gecko) Chrome/112.0.0.0 Safari/537.36" etag="RRYIh0uSzZoGJeKOR6ze" version="20.5.3" type="github" pages="3">
  <diagram id="hPiGOYGPPnfGvc4q_YOD" name="OverAll">
    <mxGraphModel dx="1038" dy="571" grid="1" gridSize="10" guides="1" tooltips="1" connect="1" arrows="1" fold="1" page="1" pageScale="1" pageWidth="850" pageHeight="1100" math="0" shadow="0">
      <root>
        <mxCell id="0" />
        <mxCell id="1" parent="0" />
        <mxCell id="xylMpNpod7nq7yh_7pmX-1" value="Fast API" style="rounded=1;whiteSpace=wrap;html=1;" parent="1" vertex="1">
          <mxGeometry x="380" y="160" width="120" height="60" as="geometry" />
        </mxCell>
        <mxCell id="xylMpNpod7nq7yh_7pmX-2" value="Redis" style="rounded=1;whiteSpace=wrap;html=1;" parent="1" vertex="1">
          <mxGeometry x="170" y="270" width="120" height="60" as="geometry" />
        </mxCell>
        <mxCell id="xylMpNpod7nq7yh_7pmX-3" value="MongoDB" style="rounded=1;whiteSpace=wrap;html=1;" parent="1" vertex="1">
          <mxGeometry x="380" y="270" width="120" height="60" as="geometry" />
        </mxCell>
        <mxCell id="xylMpNpod7nq7yh_7pmX-4" value="Next.js" style="rounded=1;whiteSpace=wrap;html=1;" parent="1" vertex="1">
          <mxGeometry x="380" y="50" width="120" height="60" as="geometry" />
        </mxCell>
        <mxCell id="xylMpNpod7nq7yh_7pmX-5" value="PostgreSQL" style="rounded=1;whiteSpace=wrap;html=1;" parent="1" vertex="1">
          <mxGeometry x="600" y="270" width="120" height="60" as="geometry" />
        </mxCell>
        <mxCell id="xylMpNpod7nq7yh_7pmX-6" value="" style="endArrow=classic;html=1;rounded=0;entryX=0.5;entryY=0;entryDx=0;entryDy=0;" parent="1" target="xylMpNpod7nq7yh_7pmX-1" edge="1">
          <mxGeometry width="50" height="50" relative="1" as="geometry">
            <mxPoint x="440" y="110" as="sourcePoint" />
            <mxPoint x="490" y="60" as="targetPoint" />
          </mxGeometry>
        </mxCell>
        <mxCell id="xylMpNpod7nq7yh_7pmX-7" value="" style="endArrow=classic;html=1;rounded=0;entryX=0.5;entryY=0;entryDx=0;entryDy=0;" parent="1" edge="1">
          <mxGeometry width="50" height="50" relative="1" as="geometry">
            <mxPoint x="442" y="219" as="sourcePoint" />
            <mxPoint x="442" y="269" as="targetPoint" />
          </mxGeometry>
        </mxCell>
        <mxCell id="xylMpNpod7nq7yh_7pmX-8" value="" style="endArrow=classic;html=1;rounded=0;entryX=0.913;entryY=0.097;entryDx=0;entryDy=0;entryPerimeter=0;" parent="1" target="xylMpNpod7nq7yh_7pmX-2" edge="1">
          <mxGeometry width="50" height="50" relative="1" as="geometry">
            <mxPoint x="430" y="230" as="sourcePoint" />
            <mxPoint x="430" y="280" as="targetPoint" />
          </mxGeometry>
        </mxCell>
        <mxCell id="xylMpNpod7nq7yh_7pmX-9" value="" style="endArrow=classic;html=1;rounded=0;" parent="1" edge="1">
          <mxGeometry width="50" height="50" relative="1" as="geometry">
            <mxPoint x="460.44" y="230" as="sourcePoint" />
            <mxPoint x="630" y="260" as="targetPoint" />
          </mxGeometry>
        </mxCell>
        <UserObject label="Scheduler" link="data:page/id,i0dOvGE185mulN1IMCEW" id="xVAhIXUxibelWeFZI20h-1">
          <mxCell style="fontColor=#0000EE;fontStyle=4;rounded=1;overflow=hidden;spacing=10;" vertex="1" parent="1">
            <mxGeometry x="120" y="50" width="90" height="40" as="geometry" />
          </mxCell>
        </UserObject>
      </root>
    </mxGraphModel>
  </diagram>
  <diagram id="i0dOvGE185mulN1IMCEW" name="Scheduler">
    <mxGraphModel dx="1038" dy="571" grid="1" gridSize="10" guides="1" tooltips="1" connect="1" arrows="1" fold="1" page="1" pageScale="1" pageWidth="850" pageHeight="1100" math="0" shadow="0">
      <root>
        <mxCell id="0" />
        <mxCell id="1" parent="0" />
        <mxCell id="ytBt9Bn-jKDD065dYKAH-1" value="Celery Scheduler" style="rounded=1;whiteSpace=wrap;html=1;" parent="1" vertex="1">
          <mxGeometry x="230" y="140" width="120" height="60" as="geometry" />
        </mxCell>
        <mxCell id="ytBt9Bn-jKDD065dYKAH-2" value="Redis" style="rounded=1;whiteSpace=wrap;html=1;" parent="1" vertex="1">
          <mxGeometry x="20" y="250" width="120" height="60" as="geometry" />
        </mxCell>
        <mxCell id="ytBt9Bn-jKDD065dYKAH-3" value="MongoDB" style="rounded=1;whiteSpace=wrap;html=1;" parent="1" vertex="1">
          <mxGeometry x="230" y="250" width="120" height="60" as="geometry" />
        </mxCell>
        <mxCell id="ytBt9Bn-jKDD065dYKAH-4" value="Django App" style="rounded=1;whiteSpace=wrap;html=1;" parent="1" vertex="1">
          <mxGeometry x="230" y="30" width="120" height="60" as="geometry" />
        </mxCell>
        <mxCell id="ytBt9Bn-jKDD065dYKAH-5" value="PostgreSQL" style="rounded=1;whiteSpace=wrap;html=1;" parent="1" vertex="1">
          <mxGeometry x="450" y="250" width="120" height="60" as="geometry" />
        </mxCell>
        <mxCell id="ytBt9Bn-jKDD065dYKAH-6" value="" style="endArrow=classic;html=1;rounded=0;entryX=0.5;entryY=0;entryDx=0;entryDy=0;" parent="1" target="ytBt9Bn-jKDD065dYKAH-1" edge="1">
          <mxGeometry width="50" height="50" relative="1" as="geometry">
            <mxPoint x="290" y="90" as="sourcePoint" />
            <mxPoint x="340" y="40" as="targetPoint" />
          </mxGeometry>
        </mxCell>
        <mxCell id="ytBt9Bn-jKDD065dYKAH-7" value="" style="endArrow=classic;html=1;rounded=0;entryX=0.5;entryY=0;entryDx=0;entryDy=0;" parent="1" edge="1">
          <mxGeometry width="50" height="50" relative="1" as="geometry">
            <mxPoint x="292" y="199" as="sourcePoint" />
            <mxPoint x="292" y="249" as="targetPoint" />
          </mxGeometry>
        </mxCell>
        <mxCell id="ytBt9Bn-jKDD065dYKAH-8" value="" style="endArrow=classic;html=1;rounded=0;entryX=0.913;entryY=0.097;entryDx=0;entryDy=0;entryPerimeter=0;" parent="1" target="ytBt9Bn-jKDD065dYKAH-2" edge="1">
          <mxGeometry width="50" height="50" relative="1" as="geometry">
            <mxPoint x="280" y="210" as="sourcePoint" />
            <mxPoint x="280" y="260" as="targetPoint" />
          </mxGeometry>
        </mxCell>
        <mxCell id="ytBt9Bn-jKDD065dYKAH-9" value="" style="endArrow=classic;html=1;rounded=0;" parent="1" edge="1">
          <mxGeometry width="50" height="50" relative="1" as="geometry">
            <mxPoint x="310.44000000000005" y="210" as="sourcePoint" />
            <mxPoint x="480" y="240" as="targetPoint" />
          </mxGeometry>
        </mxCell>
        <mxCell id="ytBt9Bn-jKDD065dYKAH-11" value="&lt;b&gt;&lt;font style=&quot;font-size: 20px;&quot;&gt;Commands:&lt;/font&gt;&lt;/b&gt;" style="text;html=1;resizable=0;autosize=1;align=center;verticalAlign=middle;points=[];fillColor=none;strokeColor=none;rounded=0;" parent="1" vertex="1">
          <mxGeometry x="590" y="390" width="140" height="40" as="geometry" />
        </mxCell>
        <mxCell id="ytBt9Bn-jKDD065dYKAH-12" value="&lt;span style=&quot;font-size: 20px;&quot;&gt;&lt;b&gt;System Flow:&lt;/b&gt;&lt;/span&gt;" style="text;html=1;resizable=0;autosize=1;align=center;verticalAlign=middle;points=[];fillColor=none;strokeColor=none;rounded=0;" parent="1" vertex="1">
          <mxGeometry x="5" y="400" width="150" height="40" as="geometry" />
        </mxCell>
      </root>
    </mxGraphModel>
  </diagram>
  <diagram id="rOzlm0YnU6-BW605hTom" name="FMS-API">
    <mxGraphModel dx="1038" dy="571" grid="1" gridSize="10" guides="1" tooltips="1" connect="1" arrows="1" fold="1" page="1" pageScale="1" pageWidth="3300" pageHeight="4681" math="0" shadow="0">
      <root>
        <mxCell id="0" />
        <mxCell id="1" parent="0" />
        <mxCell id="ZnR-_FNJLTDd92qS7el1-23" value="&lt;pre style=&quot;background-color: rgb(255, 255, 255); font-family: &amp;quot;JetBrains Mono&amp;quot;, monospace; font-size: 11.3pt;&quot;&gt;&lt;pre style=&quot;font-family: &amp;quot;JetBrains Mono&amp;quot;, monospace; font-size: 11.3pt;&quot;&gt;CropPlanResponse&lt;/pre&gt;&lt;/pre&gt;" style="rounded=1;whiteSpace=wrap;html=1;fontSize=17;" vertex="1" parent="1">
          <mxGeometry x="20" y="180" width="200" height="30" as="geometry" />
        </mxCell>
        <mxCell id="ZnR-_FNJLTDd92qS7el1-25" value="&lt;pre style=&quot;background-color: rgb(255, 255, 255); font-family: &amp;quot;JetBrains Mono&amp;quot;, monospace; font-size: 11.3pt;&quot;&gt;&lt;pre style=&quot;font-family: &amp;quot;JetBrains Mono&amp;quot;, monospace; font-size: 11.3pt;&quot;&gt;CropPlanCriteria&lt;/pre&gt;&lt;/pre&gt;" style="rounded=1;whiteSpace=wrap;html=1;fontSize=17;" vertex="1" parent="1">
          <mxGeometry x="20" y="110" width="200" height="30" as="geometry" />
        </mxCell>
        <mxCell id="ZnR-_FNJLTDd92qS7el1-28" value="&lt;pre style=&quot;background-color: rgb(255, 255, 255); font-family: &amp;quot;JetBrains Mono&amp;quot;, monospace; font-size: 11.3pt;&quot;&gt;&lt;pre style=&quot;font-family: &amp;quot;JetBrains Mono&amp;quot;, monospace; font-size: 11.3pt;&quot;&gt;CropPlan&lt;/pre&gt;&lt;/pre&gt;" style="rounded=1;whiteSpace=wrap;html=1;fontSize=17;" vertex="1" parent="1">
          <mxGeometry x="20" y="210" width="70" height="30" as="geometry" />
        </mxCell>
        <mxCell id="ZnR-_FNJLTDd92qS7el1-31" value="&lt;font style=&quot;font-size: 19px;&quot;&gt;Input&lt;/font&gt;" style="text;html=1;resizable=0;autosize=1;align=center;verticalAlign=middle;points=[];fillColor=none;strokeColor=none;rounded=0;fontSize=17;" vertex="1" parent="1">
          <mxGeometry x="10" y="70" width="70" height="40" as="geometry" />
        </mxCell>
        <mxCell id="ZnR-_FNJLTDd92qS7el1-32" value="&lt;font style=&quot;font-size: 19px;&quot;&gt;Output&lt;/font&gt;" style="text;html=1;resizable=0;autosize=1;align=center;verticalAlign=middle;points=[];fillColor=none;strokeColor=none;rounded=0;fontSize=17;" vertex="1" parent="1">
          <mxGeometry x="10" y="140" width="80" height="40" as="geometry" />
        </mxCell>
        <mxCell id="ZnR-_FNJLTDd92qS7el1-33" value="&lt;font style=&quot;font-size: 19px;&quot;&gt;GET METHODS&lt;/font&gt;" style="text;html=1;resizable=0;autosize=1;align=center;verticalAlign=middle;points=[];fillColor=none;strokeColor=none;rounded=0;fontSize=17;" vertex="1" parent="1">
          <mxGeometry x="10" width="160" height="40" as="geometry" />
        </mxCell>
        <mxCell id="ZnR-_FNJLTDd92qS7el1-35" value="&lt;font style=&quot;font-size: 19px;&quot;&gt;API - get-crop-plan&lt;/font&gt;" style="text;html=1;resizable=0;autosize=1;align=center;verticalAlign=middle;points=[];fillColor=none;strokeColor=none;rounded=0;fontSize=17;" vertex="1" parent="1">
          <mxGeometry x="25" y="40" width="180" height="40" as="geometry" />
        </mxCell>
        <mxCell id="ZnR-_FNJLTDd92qS7el1-36" value="&lt;pre style=&quot;background-color: rgb(255, 255, 255); font-family: &amp;quot;JetBrains Mono&amp;quot;, monospace; font-size: 11.3pt;&quot;&gt;CropHarvestResponse&lt;/pre&gt;" style="rounded=1;whiteSpace=wrap;html=1;fontSize=17;" vertex="1" parent="1">
          <mxGeometry x="280" y="180" width="200" height="30" as="geometry" />
        </mxCell>
        <mxCell id="ZnR-_FNJLTDd92qS7el1-37" value="&lt;pre style=&quot;background-color: rgb(255, 255, 255); font-family: &amp;quot;JetBrains Mono&amp;quot;, monospace; font-size: 11.3pt;&quot;&gt;CropHarvestCriteria&lt;/pre&gt;" style="rounded=1;whiteSpace=wrap;html=1;fontSize=17;" vertex="1" parent="1">
          <mxGeometry x="280" y="110" width="200" height="30" as="geometry" />
        </mxCell>
        <mxCell id="ZnR-_FNJLTDd92qS7el1-38" value="&lt;pre style=&quot;background-color: rgb(255, 255, 255); font-family: &amp;quot;JetBrains Mono&amp;quot;, monospace; font-size: 11.3pt;&quot;&gt;&lt;pre style=&quot;font-family: &amp;quot;JetBrains Mono&amp;quot;, monospace; font-size: 11.3pt;&quot;&gt;HarvestForecast&lt;/pre&gt;&lt;/pre&gt;" style="rounded=1;whiteSpace=wrap;html=1;fontSize=17;" vertex="1" parent="1">
          <mxGeometry x="280" y="210" width="140" height="30" as="geometry" />
        </mxCell>
        <mxCell id="ZnR-_FNJLTDd92qS7el1-39" value="&lt;font style=&quot;font-size: 19px;&quot;&gt;Input&lt;/font&gt;" style="text;html=1;resizable=0;autosize=1;align=center;verticalAlign=middle;points=[];fillColor=none;strokeColor=none;rounded=0;fontSize=17;" vertex="1" parent="1">
          <mxGeometry x="270" y="70" width="70" height="40" as="geometry" />
        </mxCell>
        <mxCell id="ZnR-_FNJLTDd92qS7el1-40" value="&lt;font style=&quot;font-size: 19px;&quot;&gt;Output&lt;/font&gt;" style="text;html=1;resizable=0;autosize=1;align=center;verticalAlign=middle;points=[];fillColor=none;strokeColor=none;rounded=0;fontSize=17;" vertex="1" parent="1">
          <mxGeometry x="270" y="140" width="80" height="40" as="geometry" />
        </mxCell>
        <mxCell id="ZnR-_FNJLTDd92qS7el1-41" value="&lt;font style=&quot;font-size: 19px;&quot;&gt;API - get-crop-harvest&lt;/font&gt;" style="text;html=1;resizable=0;autosize=1;align=center;verticalAlign=middle;points=[];fillColor=none;strokeColor=none;rounded=0;fontSize=17;" vertex="1" parent="1">
          <mxGeometry x="270" y="40" width="210" height="40" as="geometry" />
        </mxCell>
        <mxCell id="ZnR-_FNJLTDd92qS7el1-42" value="&lt;pre style=&quot;background-color: rgb(255, 255, 255); font-family: &amp;quot;JetBrains Mono&amp;quot;, monospace; font-size: 11.3pt;&quot;&gt;&lt;pre style=&quot;font-family: &amp;quot;JetBrains Mono&amp;quot;, monospace; font-size: 11.3pt;&quot;&gt;CropAvailabilityResponse&lt;/pre&gt;&lt;/pre&gt;" style="rounded=1;whiteSpace=wrap;html=1;fontSize=17;" vertex="1" parent="1">
          <mxGeometry x="590" y="180" width="230" height="30" as="geometry" />
        </mxCell>
        <mxCell id="ZnR-_FNJLTDd92qS7el1-43" value="&lt;pre style=&quot;background-color: rgb(255, 255, 255); font-family: &amp;quot;JetBrains Mono&amp;quot;, monospace; font-size: 11.3pt;&quot;&gt;&lt;pre style=&quot;font-family: &amp;quot;JetBrains Mono&amp;quot;, monospace; font-size: 11.3pt;&quot;&gt;CropAvailability&lt;/pre&gt;&lt;/pre&gt;" style="rounded=1;whiteSpace=wrap;html=1;fontSize=17;" vertex="1" parent="1">
          <mxGeometry x="590" y="110" width="200" height="30" as="geometry" />
        </mxCell>
        <mxCell id="ZnR-_FNJLTDd92qS7el1-44" value="&lt;pre style=&quot;background-color: rgb(255, 255, 255); font-family: &amp;quot;JetBrains Mono&amp;quot;, monospace; font-size: 11.3pt;&quot;&gt;&lt;pre style=&quot;font-family: &amp;quot;JetBrains Mono&amp;quot;, monospace; font-size: 11.3pt;&quot;&gt;AvailableCrop&lt;/pre&gt;&lt;/pre&gt;" style="rounded=1;whiteSpace=wrap;html=1;fontSize=17;" vertex="1" parent="1">
          <mxGeometry x="590" y="210" width="140" height="30" as="geometry" />
        </mxCell>
        <mxCell id="ZnR-_FNJLTDd92qS7el1-45" value="&lt;font style=&quot;font-size: 19px;&quot;&gt;Input&lt;/font&gt;" style="text;html=1;resizable=0;autosize=1;align=center;verticalAlign=middle;points=[];fillColor=none;strokeColor=none;rounded=0;fontSize=17;" vertex="1" parent="1">
          <mxGeometry x="580" y="70" width="70" height="40" as="geometry" />
        </mxCell>
        <mxCell id="ZnR-_FNJLTDd92qS7el1-46" value="&lt;font style=&quot;font-size: 19px;&quot;&gt;Output&lt;/font&gt;" style="text;html=1;resizable=0;autosize=1;align=center;verticalAlign=middle;points=[];fillColor=none;strokeColor=none;rounded=0;fontSize=17;" vertex="1" parent="1">
          <mxGeometry x="580" y="140" width="80" height="40" as="geometry" />
        </mxCell>
        <mxCell id="ZnR-_FNJLTDd92qS7el1-47" value="&lt;font style=&quot;font-size: 19px;&quot;&gt;API - get-crop-availability&lt;/font&gt;" style="text;html=1;resizable=0;autosize=1;align=center;verticalAlign=middle;points=[];fillColor=none;strokeColor=none;rounded=0;fontSize=17;" vertex="1" parent="1">
          <mxGeometry x="570" y="40" width="230" height="40" as="geometry" />
        </mxCell>
        <mxCell id="ZnR-_FNJLTDd92qS7el1-48" value="&lt;pre style=&quot;background-color: rgb(255, 255, 255); font-family: &amp;quot;JetBrains Mono&amp;quot;, monospace; font-size: 11.3pt;&quot;&gt;&lt;pre style=&quot;font-family: &amp;quot;JetBrains Mono&amp;quot;, monospace; font-size: 11.3pt;&quot;&gt;List(SuggestedCrop)&lt;/pre&gt;&lt;/pre&gt;" style="rounded=1;whiteSpace=wrap;html=1;fontSize=17;" vertex="1" parent="1">
          <mxGeometry x="30" y="420" width="230" height="30" as="geometry" />
        </mxCell>
        <mxCell id="ZnR-_FNJLTDd92qS7el1-49" value="&lt;pre style=&quot;background-color: rgb(255, 255, 255); font-family: &amp;quot;JetBrains Mono&amp;quot;, monospace; font-size: 11.3pt;&quot;&gt;&lt;pre style=&quot;font-family: &amp;quot;JetBrains Mono&amp;quot;, monospace; font-size: 11.3pt;&quot;&gt;CropSuggestionCriteria&lt;/pre&gt;&lt;/pre&gt;" style="rounded=1;whiteSpace=wrap;html=1;fontSize=17;" vertex="1" parent="1">
          <mxGeometry x="30" y="350" width="200" height="30" as="geometry" />
        </mxCell>
        <mxCell id="ZnR-_FNJLTDd92qS7el1-51" value="&lt;font style=&quot;font-size: 19px;&quot;&gt;Input&lt;/font&gt;" style="text;html=1;resizable=0;autosize=1;align=center;verticalAlign=middle;points=[];fillColor=none;strokeColor=none;rounded=0;fontSize=17;" vertex="1" parent="1">
          <mxGeometry x="20" y="310" width="70" height="40" as="geometry" />
        </mxCell>
        <mxCell id="ZnR-_FNJLTDd92qS7el1-52" value="&lt;font style=&quot;font-size: 19px;&quot;&gt;Output&lt;/font&gt;" style="text;html=1;resizable=0;autosize=1;align=center;verticalAlign=middle;points=[];fillColor=none;strokeColor=none;rounded=0;fontSize=17;" vertex="1" parent="1">
          <mxGeometry x="20" y="380" width="80" height="40" as="geometry" />
        </mxCell>
        <mxCell id="ZnR-_FNJLTDd92qS7el1-53" value="&lt;font style=&quot;font-size: 19px;&quot;&gt;API - get-crop-suggestions&lt;/font&gt;" style="text;html=1;resizable=0;autosize=1;align=center;verticalAlign=middle;points=[];fillColor=none;strokeColor=none;rounded=0;fontSize=17;" vertex="1" parent="1">
          <mxGeometry y="280" width="250" height="40" as="geometry" />
        </mxCell>
      </root>
    </mxGraphModel>
  </diagram>
</mxfile>
